<svg xmlns="http://www.w3.org/2000/svg" width="159.035" height="144.874" viewBox="0 0 159.035 144.874">
  <g id="Group_27" data-name="Group 27" transform="translate(-276 -379.922)">
    <g id="Group_23" data-name="Group 23" transform="translate(-35 6)">
      <g id="Group_2" data-name="Group 2" transform="translate(-529 70)" style="isolation: isolate">
        <g id="Group_20" data-name="Group 20">
          <g id="Group_10" data-name="Group 10" transform="translate(-4 -6)">
            <g id="Group_21" data-name="Group 21">
              <path id="Subtraction_1" data-name="Subtraction 1" d="M-3762,656.841h-120v-116h77.574L-3762,581.853V656.84Z" transform="translate(4726 -210.841)" fill="#006743"/>
            </g>
          </g>
        </g>
      </g>
      <text id="To" transform="translate(318.878 404.325) rotate(-16)" fill="#fff" font-size="37" font-family="Mistral" letter-spacing="0.03em"><tspan x="0" y="33">To</tspan></text>
      <text id="Do" transform="translate(358.875 423.055) rotate(9)" fill="#fff" font-size="37" font-family="Mistral" letter-spacing="0.03em"><tspan x="0" y="33">Do</tspan></text>
      <text id="List" transform="translate(365.965 464.648) rotate(-21)" fill="#fff" font-size="37" font-family="Mistral" letter-spacing="0.03em"><tspan x="0" y="33">List</tspan></text>
    </g>
    <g id="Group_25" data-name="Group 25" transform="translate(-18 -12)">
      <g id="Group_22" data-name="Group 22" transform="translate(-538 79)" style="isolation: isolate">
        <g id="Group_20-2" data-name="Group 20">
          <g id="Group_10-2" data-name="Group 10" transform="translate(-4 -6)">
            <g id="Group_21-2" data-name="Group 21">
              <path id="Subtraction_1-2" data-name="Subtraction 1" d="M-3762,656.841h-120v-116h77.574L-3762,581.853V656.84Z" transform="translate(4726 -210.841)" fill="#008456"/>
            </g>
          </g>
        </g>
      </g>
      <g id="Group_2-2" data-name="Group 2" transform="translate(-529 70)" style="isolation: isolate">
        <g id="Group_20-3" data-name="Group 20">
          <g id="Group_10-3" data-name="Group 10" transform="translate(-4 -6)">
            <g id="Group_21-3" data-name="Group 21">
              <path id="Subtraction_1-3" data-name="Subtraction 1" d="M-3762,656.841h-120v-116h77.574L-3762,581.853V656.84Z" transform="translate(4726 -210.841)" fill="#006743"/>
            </g>
          </g>
        </g>
      </g>
      <text id="To-2" data-name="To" transform="translate(318.878 404.325) rotate(-16)" fill="#fff" font-size="37" font-family="Mistral" letter-spacing="0.03em"><tspan x="0" y="33">To</tspan></text>
      <text id="Do-2" data-name="Do" transform="translate(358.875 423.055) rotate(9)" fill="#fff" font-size="37" font-family="Mistral" letter-spacing="0.03em"><tspan x="0" y="33">Do</tspan></text>
      <text id="List-2" data-name="List" transform="translate(365.965 464.648) rotate(-21)" fill="#fff" font-size="37" font-family="Mistral" letter-spacing="0.03em"><tspan x="0" y="33">List</tspan></text>
    </g>
  </g>
</svg>
